<svg data-v-423bf9ae="" xmlns="http://www.w3.org/2000/svg" viewBox="0 0 431.4661290862267 60" class="font"><!----><!----><!----><g data-v-423bf9ae="" id="1db5c433-57e3-4cc9-b7e3-b10bc2e79dcd" fill="black" transform="matrix(6.066733864221661,0,0,6.066733864221661,-5.096050937232775,-6.066733387384502)"><path d="M11.82 9.99L11.82 9.99L11.82 9.99Q11.33 10.20 10.83 10.36L10.83 10.36L10.83 10.36Q10.33 10.53 9.80 10.65L9.80 10.65L9.80 10.65Q9.26 10.77 8.67 10.83L8.67 10.83L8.67 10.83Q8.08 10.89 7.40 10.89L7.40 10.89L7.40 10.89Q5.97 10.89 4.76 10.58L4.76 10.58L4.76 10.58Q3.55 10.27 2.68 9.66L2.68 9.66L2.68 9.66Q1.81 9.04 1.33 8.11L1.33 8.11L1.33 8.11Q0.84 7.18 0.84 5.95L0.84 5.95L0.84 5.95Q0.84 4.71 1.33 3.78L1.33 3.78L1.33 3.78Q1.81 2.86 2.68 2.24L2.68 2.24L2.68 2.24Q3.55 1.62 4.76 1.31L4.76 1.31L4.76 1.31Q5.97 1.00 7.40 1.00L7.40 1.00L7.40 1.00Q8.08 1.00 8.67 1.07L8.67 1.07L8.67 1.07Q9.26 1.13 9.80 1.25L9.80 1.25L9.80 1.25Q10.33 1.37 10.83 1.53L10.83 1.53L10.83 1.53Q11.33 1.70 11.82 1.90L11.82 1.90L11.82 4.18L11.82 4.18Q11.43 3.97 11.00 3.76L11.00 3.76L11.00 3.76Q10.57 3.55 10.05 3.39L10.05 3.39L10.05 3.39Q9.53 3.22 8.91 3.11L8.91 3.11L8.91 3.11Q8.29 3.01 7.51 3.01L7.51 3.01L7.51 3.01Q6.31 3.01 5.52 3.25L5.52 3.25L5.52 3.25Q4.73 3.50 4.26 3.91L4.26 3.91L4.26 3.91Q3.79 4.32 3.60 4.85L3.60 4.85L3.60 4.85Q3.40 5.38 3.40 5.95L3.40 5.95L3.40 5.95Q3.40 6.32 3.49 6.69L3.49 6.69L3.49 6.69Q3.57 7.05 3.76 7.38L3.76 7.38L3.76 7.38Q3.95 7.70 4.26 7.98L4.26 7.98L4.26 7.98Q4.57 8.25 5.02 8.45L5.02 8.45L5.02 8.45Q5.48 8.65 6.09 8.76L6.09 8.76L6.09 8.76Q6.71 8.87 7.51 8.87L7.51 8.87L7.51 8.87Q8.29 8.87 8.91 8.77L8.91 8.77L8.91 8.77Q9.53 8.67 10.05 8.51L10.05 8.51L10.05 8.51Q10.57 8.35 11.00 8.14L11.00 8.14L11.00 8.14Q11.43 7.93 11.82 7.71L11.82 7.71L11.82 9.99ZM16.72 7.18L16.72 10.64L14.18 10.64L14.18 1.24L20.54 1.24L20.54 1.24Q21.57 1.24 22.28 1.46L22.28 1.46L22.28 1.46Q23.00 1.67 23.44 2.06L23.44 2.06L23.44 2.06Q23.89 2.45 24.09 3.00L24.09 3.00L24.09 3.00Q24.29 3.55 24.29 4.22L24.29 4.22L24.29 4.22Q24.29 4.82 24.13 5.26L24.13 5.26L24.13 5.26Q23.96 5.71 23.68 6.03L23.68 6.03L23.68 6.03Q23.39 6.34 23.02 6.56L23.02 6.56L23.02 6.56Q22.64 6.78 22.22 6.92L22.22 6.92L25.30 10.64L22.33 10.64L19.49 7.18L16.72 7.18ZM21.73 4.21L21.73 4.21L21.73 4.21Q21.73 3.94 21.66 3.75L21.66 3.75L21.66 3.75Q21.59 3.55 21.41 3.44L21.41 3.44L21.41 3.44Q21.23 3.32 20.94 3.26L20.94 3.26L20.94 3.26Q20.64 3.21 20.19 3.21L20.19 3.21L16.72 3.21L16.72 5.22L20.19 5.22L20.19 5.22Q20.64 5.22 20.94 5.16L20.94 5.16L20.94 5.16Q21.23 5.11 21.41 4.99L21.41 4.99L21.41 4.99Q21.59 4.87 21.66 4.68L21.66 4.68L21.66 4.68Q21.73 4.48 21.73 4.21ZM36.72 10.64L27.12 10.64L27.12 1.24L36.63 1.24L36.63 3.25L29.72 3.25L29.72 4.80L36.27 4.80L36.27 6.80L29.72 6.80L29.72 8.63L36.72 8.63L36.72 10.64ZM47.60 10.64L46.72 8.86L41.48 8.86L40.60 10.64L37.77 10.64L42.68 1.24L45.51 1.24L50.43 10.64L47.60 10.64ZM44.11 3.57L42.39 7.03L45.82 7.03L44.11 3.57ZM60.68 3.29L56.68 3.29L56.68 10.64L54.15 10.64L54.15 3.29L50.16 3.29L50.16 1.24L60.68 1.24L60.68 3.29ZM71.96 10.64L62.35 10.64L62.35 1.24L71.86 1.24L71.86 3.25L64.96 3.25L64.96 4.80L71.50 4.80L71.50 6.80L64.96 6.80L64.96 8.63L71.96 8.63L71.96 10.64Z"></path></g><!----><!----></svg>